<?xml version="1.0" encoding="UTF-8" standalone="no"?>
<!DOCTYPE svg PUBLIC "-//W3C//DTD SVG 1.1//EN"
 "http://www.w3.org/Graphics/SVG/1.1/DTD/svg11.dtd">
<!-- Generated by graphviz version 2.43.0 (0)
 -->
<!-- Title: %3 Pages: 1 -->
<svg width="595pt" height="188pt"
 viewBox="0.00 0.00 595.16 188.00" xmlns="http://www.w3.org/2000/svg" xmlns:xlink="http://www.w3.org/1999/xlink">
<g id="graph0" class="graph" transform="scale(1 1) rotate(0) translate(4 184)">
<title>%3</title>
<polygon fill="white" stroke="transparent" points="-4,4 -4,-184 591.16,-184 591.16,4 -4,4"/>
<!-- /resources/Network/SecurityGroups/ALB -->
<g id="node1" class="node">
<title>/resources/Network/SecurityGroups/ALB</title>
<ellipse fill="none" stroke="black" cx="199.53" cy="-90" rx="199.56" ry="18"/>
<text text-anchor="middle" x="199.53" y="-86.3" font-family="Times,serif" font-size="14.00">/resources/Network/SecurityGroups/ALB</text>
</g>
<!-- /resources/Network/VPC -->
<g id="node2" class="node">
<title>/resources/Network/VPC</title>
<ellipse fill="none" stroke="black" cx="313.53" cy="-18" rx="124.28" ry="18"/>
<text text-anchor="middle" x="313.53" y="-14.3" font-family="Times,serif" font-size="14.00">/resources/Network/VPC</text>
</g>
<!-- /resources/Network/SecurityGroups/ALB&#45;&gt;/resources/Network/VPC -->
<g id="edge1" class="edge">
<title>/resources/Network/SecurityGroups/ALB&#45;&gt;/resources/Network/VPC</title>
<path fill="none" stroke="black" d="M227.13,-72.05C242.25,-62.77 261.18,-51.15 277.46,-41.15"/>
<polygon fill="black" stroke="black" points="279.5,-44 286.19,-35.79 275.84,-38.04 279.5,-44"/>
</g>
<!-- /resources/Network/SecurityGroups/ECS/default_service -->
<g id="node3" class="node">
<title>/resources/Network/SecurityGroups/ECS/default_service</title>
<ellipse fill="none" stroke="black" cx="313.53" cy="-162" rx="273.75" ry="18"/>
<text text-anchor="middle" x="313.53" y="-158.3" font-family="Times,serif" font-size="14.00">/resources/Network/SecurityGroups/ECS/default_service</text>
</g>
<!-- /resources/Network/SecurityGroups/ECS/default_service&#45;&gt;/resources/Network/SecurityGroups/ALB -->
<g id="edge3" class="edge">
<title>/resources/Network/SecurityGroups/ECS/default_service&#45;&gt;/resources/Network/SecurityGroups/ALB</title>
<path fill="none" stroke="black" d="M285.94,-144.05C270.92,-134.84 252.17,-123.32 235.97,-113.37"/>
<polygon fill="black" stroke="black" points="237.62,-110.28 227.27,-108.03 233.96,-116.25 237.62,-110.28"/>
</g>
<!-- /resources/Network/SecurityGroups/ECS/default_service&#45;&gt;/resources/Network/VPC -->
<g id="edge2" class="edge">
<title>/resources/Network/SecurityGroups/ECS/default_service&#45;&gt;/resources/Network/VPC</title>
<path fill="none" stroke="black" d="M365.72,-144.09C382.38,-135.94 398.97,-124.29 408.53,-108 416.63,-94.2 416.63,-85.8 408.53,-72 400.22,-57.84 386.59,-47.18 372.22,-39.29"/>
<polygon fill="black" stroke="black" points="373.72,-36.12 363.22,-34.72 370.55,-42.36 373.72,-36.12"/>
</g>
</g>
</svg>
