<?xml version="1.0" encoding="UTF-8" standalone="no"?>
<!DOCTYPE svg PUBLIC "-//W3C//DTD SVG 1.1//EN"
 "http://www.w3.org/Graphics/SVG/1.1/DTD/svg11.dtd">
<!-- Generated by graphviz version 2.43.0 (0)
 -->
<!-- Title: %3 Pages: 1 -->
<svg width="768pt" height="404pt"
 viewBox="0.00 0.00 768.35 404.00" xmlns="http://www.w3.org/2000/svg" xmlns:xlink="http://www.w3.org/1999/xlink">
<g id="graph0" class="graph" transform="scale(1 1) rotate(0) translate(4 400)">
<title>%3</title>
<polygon fill="white" stroke="transparent" points="-4,4 -4,-400 764.35,-400 764.35,4 -4,4"/>
<!-- /resources/Database/RDS/Postgresql_Main -->
<g id="node1" class="node">
<title>/resources/Database/RDS/Postgresql_Main</title>
<ellipse fill="none" stroke="black" cx="282.72" cy="-306" rx="208.76" ry="18"/>
<text text-anchor="middle" x="282.72" y="-302.3" font-family="Times,serif" font-size="14.00">/resources/Database/RDS/Postgresql_Main</text>
</g>
<!-- /resources/Network/VPC -->
<g id="node2" class="node">
<title>/resources/Network/VPC</title>
<ellipse fill="none" stroke="black" cx="203.72" cy="-18" rx="124.28" ry="18"/>
<text text-anchor="middle" x="203.72" y="-14.3" font-family="Times,serif" font-size="14.00">/resources/Network/VPC</text>
</g>
<!-- /resources/Database/RDS/Postgresql_Main&#45;&gt;/resources/Network/VPC -->
<g id="edge1" class="edge">
<title>/resources/Database/RDS/Postgresql_Main&#45;&gt;/resources/Network/VPC</title>
<path fill="none" stroke="black" d="M214.19,-288.97C195.28,-281.06 176.9,-269.34 165.72,-252 123.73,-186.88 164.49,-90.87 188.67,-45.11"/>
<polygon fill="black" stroke="black" points="191.85,-46.59 193.55,-36.14 185.7,-43.25 191.85,-46.59"/>
</g>
<!-- /resources/Network/SecurityGroups/RDS&#45;Postgres -->
<g id="node3" class="node">
<title>/resources/Network/SecurityGroups/RDS&#45;Postgres</title>
<ellipse fill="none" stroke="black" cx="418.72" cy="-234" rx="244.26" ry="18"/>
<text text-anchor="middle" x="418.72" y="-230.3" font-family="Times,serif" font-size="14.00">/resources/Network/SecurityGroups/RDS&#45;Postgres</text>
</g>
<!-- /resources/Database/RDS/Postgresql_Main&#45;&gt;/resources/Network/SecurityGroups/RDS&#45;Postgres -->
<g id="edge2" class="edge">
<title>/resources/Database/RDS/Postgresql_Main&#45;&gt;/resources/Network/SecurityGroups/RDS&#45;Postgres</title>
<path fill="none" stroke="black" d="M315.65,-288.05C333.97,-278.62 356.97,-266.78 376.6,-256.68"/>
<polygon fill="black" stroke="black" points="378.35,-259.72 385.63,-252.03 375.14,-253.5 378.35,-259.72"/>
</g>
<!-- /resources/Network/SecurityGroups/RDS&#45;Postgres&#45;&gt;/resources/Network/VPC -->
<g id="edge6" class="edge">
<title>/resources/Network/SecurityGroups/RDS&#45;Postgres&#45;&gt;/resources/Network/VPC</title>
<path fill="none" stroke="black" d="M305.54,-217.98C260.97,-209.54 217.18,-197.17 203.72,-180 173.73,-141.71 184.51,-81.1 194.49,-46.19"/>
<polygon fill="black" stroke="black" points="197.96,-46.82 197.52,-36.24 191.26,-44.78 197.96,-46.82"/>
</g>
<!-- /resources/Network/SecurityGroups/ECS/default_service -->
<g id="node5" class="node">
<title>/resources/Network/SecurityGroups/ECS/default_service</title>
<ellipse fill="none" stroke="black" cx="486.72" cy="-162" rx="273.75" ry="18"/>
<text text-anchor="middle" x="486.72" y="-158.3" font-family="Times,serif" font-size="14.00">/resources/Network/SecurityGroups/ECS/default_service</text>
</g>
<!-- /resources/Network/SecurityGroups/RDS&#45;Postgres&#45;&gt;/resources/Network/SecurityGroups/ECS/default_service -->
<g id="edge7" class="edge">
<title>/resources/Network/SecurityGroups/RDS&#45;Postgres&#45;&gt;/resources/Network/SecurityGroups/ECS/default_service</title>
<path fill="none" stroke="black" d="M435.53,-215.7C443.85,-207.14 454.03,-196.66 463.11,-187.3"/>
<polygon fill="black" stroke="black" points="465.65,-189.72 470.11,-180.1 460.63,-184.84 465.65,-189.72"/>
</g>
<!-- /resources/Network/SecurityGroups/ALB -->
<g id="node4" class="node">
<title>/resources/Network/SecurityGroups/ALB</title>
<ellipse fill="none" stroke="black" cx="477.72" cy="-90" rx="199.56" ry="18"/>
<text text-anchor="middle" x="477.72" y="-86.3" font-family="Times,serif" font-size="14.00">/resources/Network/SecurityGroups/ALB</text>
</g>
<!-- /resources/Network/SecurityGroups/ALB&#45;&gt;/resources/Network/VPC -->
<g id="edge3" class="edge">
<title>/resources/Network/SecurityGroups/ALB&#45;&gt;/resources/Network/VPC</title>
<path fill="none" stroke="black" d="M414.52,-72.85C372,-61.99 315.96,-47.67 272.35,-36.53"/>
<polygon fill="black" stroke="black" points="272.95,-33.07 262.4,-33.99 271.22,-39.86 272.95,-33.07"/>
</g>
<!-- /resources/Network/SecurityGroups/ECS/default_service&#45;&gt;/resources/Network/VPC -->
<g id="edge4" class="edge">
<title>/resources/Network/SecurityGroups/ECS/default_service&#45;&gt;/resources/Network/VPC</title>
<path fill="none" stroke="black" d="M360.57,-146C328.75,-138.14 295.93,-126.18 268.72,-108 245.38,-92.4 227.44,-65.43 216.38,-45.26"/>
<polygon fill="black" stroke="black" points="219.4,-43.49 211.65,-36.26 213.2,-46.74 219.4,-43.49"/>
</g>
<!-- /resources/Network/SecurityGroups/ECS/default_service&#45;&gt;/resources/Network/SecurityGroups/ALB -->
<g id="edge5" class="edge">
<title>/resources/Network/SecurityGroups/ECS/default_service&#45;&gt;/resources/Network/SecurityGroups/ALB</title>
<path fill="none" stroke="black" d="M484.5,-143.7C483.51,-135.98 482.32,-126.71 481.21,-118.11"/>
<polygon fill="black" stroke="black" points="484.67,-117.58 479.92,-108.1 477.73,-118.47 484.67,-117.58"/>
</g>
<!-- /resources/Security/SecretsManager/SecretDBPostgreSQL -->
<g id="node6" class="node">
<title>/resources/Security/SecretsManager/SecretDBPostgreSQL</title>
<ellipse fill="none" stroke="black" cx="282.72" cy="-378" rx="282.95" ry="18"/>
<text text-anchor="middle" x="282.72" y="-374.3" font-family="Times,serif" font-size="14.00">/resources/Security/SecretsManager/SecretDBPostgreSQL</text>
</g>
<!-- /resources/Security/SecretsManager/SecretDBPostgreSQL&#45;&gt;/resources/Database/RDS/Postgresql_Main -->
<g id="edge8" class="edge">
<title>/resources/Security/SecretsManager/SecretDBPostgreSQL&#45;&gt;/resources/Database/RDS/Postgresql_Main</title>
<path fill="none" stroke="black" d="M282.72,-359.7C282.72,-351.98 282.72,-342.71 282.72,-334.11"/>
<polygon fill="black" stroke="black" points="286.23,-334.1 282.72,-324.1 279.23,-334.1 286.23,-334.1"/>
</g>
</g>
</svg>
