<?xml version="1.0" encoding="UTF-8" standalone="no"?>
<!DOCTYPE svg PUBLIC "-//W3C//DTD SVG 1.1//EN"
 "http://www.w3.org/Graphics/SVG/1.1/DTD/svg11.dtd">
<!-- Generated by graphviz version 2.43.0 (0)
 -->
<!-- Title: %3 Pages: 1 -->
<svg width="677pt" height="260pt"
 viewBox="0.00 0.00 677.00 260.00" xmlns="http://www.w3.org/2000/svg" xmlns:xlink="http://www.w3.org/1999/xlink">
<g id="graph0" class="graph" transform="scale(1 1) rotate(0) translate(4 256)">
<title>%3</title>
<polygon fill="white" stroke="transparent" points="-4,4 -4,-256 673,-256 673,4 -4,4"/>
<!-- /resources/Network/SecurityGroups/ALB -->
<g id="node1" class="node">
<title>/resources/Network/SecurityGroups/ALB</title>
<ellipse fill="none" stroke="black" cx="321.38" cy="-90" rx="199.56" ry="18"/>
<text text-anchor="middle" x="321.38" y="-86.3" font-family="Times,serif" font-size="14.00">/resources/Network/SecurityGroups/ALB</text>
</g>
<!-- /resources/Network/VPC -->
<g id="node2" class="node">
<title>/resources/Network/VPC</title>
<ellipse fill="none" stroke="black" cx="321.38" cy="-18" rx="124.28" ry="18"/>
<text text-anchor="middle" x="321.38" y="-14.3" font-family="Times,serif" font-size="14.00">/resources/Network/VPC</text>
</g>
<!-- /resources/Network/SecurityGroups/ALB&#45;&gt;/resources/Network/VPC -->
<g id="edge1" class="edge">
<title>/resources/Network/SecurityGroups/ALB&#45;&gt;/resources/Network/VPC</title>
<path fill="none" stroke="black" d="M321.38,-71.7C321.38,-63.98 321.38,-54.71 321.38,-46.11"/>
<polygon fill="black" stroke="black" points="324.88,-46.1 321.38,-36.1 317.88,-46.1 324.88,-46.1"/>
</g>
<!-- /resources/Network/SecurityGroups/ECS/default_service -->
<g id="node3" class="node">
<title>/resources/Network/SecurityGroups/ECS/default_service</title>
<ellipse fill="none" stroke="black" cx="395.38" cy="-162" rx="273.75" ry="18"/>
<text text-anchor="middle" x="395.38" y="-158.3" font-family="Times,serif" font-size="14.00">/resources/Network/SecurityGroups/ECS/default_service</text>
</g>
<!-- /resources/Network/SecurityGroups/ECS/default_service&#45;&gt;/resources/Network/SecurityGroups/ALB -->
<g id="edge3" class="edge">
<title>/resources/Network/SecurityGroups/ECS/default_service&#45;&gt;/resources/Network/SecurityGroups/ALB</title>
<path fill="none" stroke="black" d="M377.09,-143.7C367.95,-135.05 356.74,-124.45 346.78,-115.03"/>
<polygon fill="black" stroke="black" points="349.13,-112.43 339.46,-108.1 344.32,-117.52 349.13,-112.43"/>
</g>
<!-- /resources/Network/SecurityGroups/ECS/default_service&#45;&gt;/resources/Network/VPC -->
<g id="edge2" class="edge">
<title>/resources/Network/SecurityGroups/ECS/default_service&#45;&gt;/resources/Network/VPC</title>
<path fill="none" stroke="black" d="M480.88,-144.76C500.28,-136.91 518.61,-125.27 530.38,-108 539.39,-94.78 540.2,-84.63 530.38,-72 516.24,-53.83 467.44,-40.89 420.55,-32.34"/>
<polygon fill="black" stroke="black" points="421.04,-28.87 410.59,-30.58 419.83,-35.77 421.04,-28.87"/>
</g>
<!-- /resources/Network/SecurityGroups/RDS&#45;Postgres -->
<g id="node4" class="node">
<title>/resources/Network/SecurityGroups/RDS&#45;Postgres</title>
<ellipse fill="none" stroke="black" cx="244.38" cy="-234" rx="244.26" ry="18"/>
<text text-anchor="middle" x="244.38" y="-230.3" font-family="Times,serif" font-size="14.00">/resources/Network/SecurityGroups/RDS&#45;Postgres</text>
</g>
<!-- /resources/Network/SecurityGroups/RDS&#45;Postgres&#45;&gt;/resources/Network/VPC -->
<g id="edge4" class="edge">
<title>/resources/Network/SecurityGroups/RDS&#45;Postgres&#45;&gt;/resources/Network/VPC</title>
<path fill="none" stroke="black" d="M162.11,-216.93C142.64,-209.07 124.13,-197.39 112.38,-180 85.49,-140.24 82.9,-109.88 112.38,-72 126.52,-53.83 175.32,-40.89 222.21,-32.34"/>
<polygon fill="black" stroke="black" points="222.93,-35.77 232.17,-30.58 221.71,-28.87 222.93,-35.77"/>
</g>
<!-- /resources/Network/SecurityGroups/RDS&#45;Postgres&#45;&gt;/resources/Network/SecurityGroups/ECS/default_service -->
<g id="edge5" class="edge">
<title>/resources/Network/SecurityGroups/RDS&#45;Postgres&#45;&gt;/resources/Network/SecurityGroups/ECS/default_service</title>
<path fill="none" stroke="black" d="M280.93,-216.05C301.63,-206.46 327.7,-194.37 349.73,-184.16"/>
<polygon fill="black" stroke="black" points="351.3,-187.29 358.9,-179.91 348.36,-180.94 351.3,-187.29"/>
</g>
</g>
</svg>
