<?xml version="1.0" encoding="UTF-8" standalone="no"?>
<!DOCTYPE svg PUBLIC "-//W3C//DTD SVG 1.1//EN"
 "http://www.w3.org/Graphics/SVG/1.1/DTD/svg11.dtd">
<!-- Generated by graphviz version 2.43.0 (0)
 -->
<!-- Title: %3 Pages: 1 -->
<svg width="1843pt" height="548pt"
 viewBox="0.00 0.00 1842.53 548.00" xmlns="http://www.w3.org/2000/svg" xmlns:xlink="http://www.w3.org/1999/xlink">
<g id="graph0" class="graph" transform="scale(1 1) rotate(0) translate(4 544)">
<title>%3</title>
<polygon fill="white" stroke="transparent" points="-4,4 -4,-544 1838.53,-544 1838.53,4 -4,4"/>
<!-- /resources/Compute/EC2/ALB_Main -->
<g id="node1" class="node">
<title>/resources/Compute/EC2/ALB_Main</title>
<ellipse fill="none" stroke="black" cx="206.9" cy="-450" rx="176.27" ry="18"/>
<text text-anchor="middle" x="206.9" y="-446.3" font-family="Times,serif" font-size="14.00">/resources/Compute/EC2/ALB_Main</text>
</g>
<!-- /resources/Network/VPC -->
<g id="node2" class="node">
<title>/resources/Network/VPC</title>
<ellipse fill="none" stroke="black" cx="678.9" cy="-18" rx="124.28" ry="18"/>
<text text-anchor="middle" x="678.9" y="-14.3" font-family="Times,serif" font-size="14.00">/resources/Network/VPC</text>
</g>
<!-- /resources/Compute/EC2/ALB_Main&#45;&gt;/resources/Network/VPC -->
<g id="edge1" class="edge">
<title>/resources/Compute/EC2/ALB_Main&#45;&gt;/resources/Network/VPC</title>
<path fill="none" stroke="black" d="M220.68,-431.79C239.76,-406.18 271.9,-355.8 271.9,-307 271.9,-307 271.9,-307 271.9,-161 271.9,-106.61 307.87,-97.52 355.9,-72 391.93,-52.85 489.18,-38.51 567.62,-29.6"/>
<polygon fill="black" stroke="black" points="568.03,-33.08 577.58,-28.49 567.25,-26.12 568.03,-33.08"/>
</g>
<!-- /resources/Network/SecurityGroups/ALB -->
<g id="node3" class="node">
<title>/resources/Network/SecurityGroups/ALB</title>
<ellipse fill="none" stroke="black" cx="564.9" cy="-90" rx="199.56" ry="18"/>
<text text-anchor="middle" x="564.9" y="-86.3" font-family="Times,serif" font-size="14.00">/resources/Network/SecurityGroups/ALB</text>
</g>
<!-- /resources/Compute/EC2/ALB_Main&#45;&gt;/resources/Network/SecurityGroups/ALB -->
<g id="edge2" class="edge">
<title>/resources/Compute/EC2/ALB_Main&#45;&gt;/resources/Network/SecurityGroups/ALB</title>
<path fill="none" stroke="black" d="M250.89,-432.39C298.56,-411.2 367.9,-369.61 367.9,-307 367.9,-307 367.9,-307 367.9,-233 367.9,-168.93 437.31,-130.89 493.73,-110.55"/>
<polygon fill="black" stroke="black" points="495.08,-113.79 503.38,-107.2 492.78,-107.18 495.08,-113.79"/>
</g>
<!-- /resources/Network/SecurityGroups/ALB&#45;&gt;/resources/Network/VPC -->
<g id="edge12" class="edge">
<title>/resources/Network/SecurityGroups/ALB&#45;&gt;/resources/Network/VPC</title>
<path fill="none" stroke="black" d="M592.49,-72.05C607.62,-62.77 626.54,-51.15 642.82,-41.15"/>
<polygon fill="black" stroke="black" points="644.86,-44 651.55,-35.79 641.2,-38.04 644.86,-44"/>
</g>
<!-- /resources/Containers/ECS/ECS_Cluster -->
<g id="node4" class="node">
<title>/resources/Containers/ECS/ECS_Cluster</title>
<ellipse fill="none" stroke="black" cx="597.9" cy="-450" rx="196.87" ry="18"/>
<text text-anchor="middle" x="597.9" y="-446.3" font-family="Times,serif" font-size="14.00">/resources/Containers/ECS/ECS_Cluster</text>
</g>
<!-- /resources/Containers/ECS/Services/default_service -->
<g id="node5" class="node">
<title>/resources/Containers/ECS/Services/default_service</title>
<ellipse fill="none" stroke="black" cx="822.9" cy="-522" rx="250.76" ry="18"/>
<text text-anchor="middle" x="822.9" y="-518.3" font-family="Times,serif" font-size="14.00">/resources/Containers/ECS/Services/default_service</text>
</g>
<!-- /resources/Containers/ECS/Services/default_service&#45;&gt;/resources/Compute/EC2/ALB_Main -->
<g id="edge6" class="edge">
<title>/resources/Containers/ECS/Services/default_service&#45;&gt;/resources/Compute/EC2/ALB_Main</title>
<path fill="none" stroke="black" d="M695.26,-506.5C588.06,-494.31 435.86,-477.02 329.97,-464.99"/>
<polygon fill="black" stroke="black" points="330.2,-461.49 319.87,-463.84 329.41,-468.44 330.2,-461.49"/>
</g>
<!-- /resources/Containers/ECS/Services/default_service&#45;&gt;/resources/Network/VPC -->
<g id="edge4" class="edge">
<title>/resources/Containers/ECS/Services/default_service&#45;&gt;/resources/Network/VPC</title>
<path fill="none" stroke="black" d="M574.47,-519.41C354.93,-515.61 63.25,-503.78 21.9,-468 -8.69,-441.54 2.9,-419.45 2.9,-379 2.9,-379 2.9,-379 2.9,-161 2.9,-51.3 348.12,-25.87 545.16,-20.29"/>
<polygon fill="black" stroke="black" points="545.4,-23.79 555.3,-20.02 545.21,-16.79 545.4,-23.79"/>
</g>
<!-- /resources/Containers/ECS/Services/default_service&#45;&gt;/resources/Containers/ECS/ECS_Cluster -->
<g id="edge3" class="edge">
<title>/resources/Containers/ECS/Services/default_service&#45;&gt;/resources/Containers/ECS/ECS_Cluster</title>
<path fill="none" stroke="black" d="M769.57,-504.41C736.81,-494.22 694.69,-481.11 660.37,-470.44"/>
<polygon fill="black" stroke="black" points="661.04,-466.98 650.45,-467.35 658.96,-473.66 661.04,-466.98"/>
</g>
<!-- /resources/Network/SecurityGroups/ECS/default_service -->
<g id="node6" class="node">
<title>/resources/Network/SecurityGroups/ECS/default_service</title>
<ellipse fill="none" stroke="black" cx="792.9" cy="-162" rx="273.75" ry="18"/>
<text text-anchor="middle" x="792.9" y="-158.3" font-family="Times,serif" font-size="14.00">/resources/Network/SecurityGroups/ECS/default_service</text>
</g>
<!-- /resources/Containers/ECS/Services/default_service&#45;&gt;/resources/Network/SecurityGroups/ECS/default_service -->
<g id="edge5" class="edge">
<title>/resources/Containers/ECS/Services/default_service&#45;&gt;/resources/Network/SecurityGroups/ECS/default_service</title>
<path fill="none" stroke="black" d="M822.9,-503.95C822.9,-477.29 822.9,-424.11 822.9,-379 822.9,-379 822.9,-379 822.9,-305 822.9,-264.16 810.87,-218.11 802.05,-189.82"/>
<polygon fill="black" stroke="black" points="805.36,-188.69 798.97,-180.24 798.7,-190.83 805.36,-188.69"/>
</g>
<!-- /resources/Security/SecretsManager/SecretDBPostgreSQL -->
<g id="node7" class="node">
<title>/resources/Security/SecretsManager/SecretDBPostgreSQL</title>
<ellipse fill="none" stroke="black" cx="1247.9" cy="-378" rx="282.95" ry="18"/>
<text text-anchor="middle" x="1247.9" y="-374.3" font-family="Times,serif" font-size="14.00">/resources/Security/SecretsManager/SecretDBPostgreSQL</text>
</g>
<!-- /resources/Containers/ECS/Services/default_service&#45;&gt;/resources/Security/SecretsManager/SecretDBPostgreSQL -->
<g id="edge7" class="edge">
<title>/resources/Containers/ECS/Services/default_service&#45;&gt;/resources/Security/SecretsManager/SecretDBPostgreSQL</title>
<path fill="none" stroke="black" d="M1036.99,-512.58C1171.21,-505.03 1322.74,-491.42 1343.9,-468 1354.62,-456.13 1352.03,-445.78 1343.9,-432 1335.96,-418.55 1323.25,-408.28 1309.65,-400.53"/>
<polygon fill="black" stroke="black" points="1311.1,-397.34 1300.62,-395.79 1307.85,-403.54 1311.1,-397.34"/>
</g>
<!-- /resources/Security/IAM/Policies/ECS_Exec_Policy -->
<g id="node8" class="node">
<title>/resources/Security/IAM/Policies/ECS_Exec_Policy</title>
<ellipse fill="none" stroke="black" cx="1092.9" cy="-450" rx="242.36" ry="18"/>
<text text-anchor="middle" x="1092.9" y="-446.3" font-family="Times,serif" font-size="14.00">/resources/Security/IAM/Policies/ECS_Exec_Policy</text>
</g>
<!-- /resources/Containers/ECS/Services/default_service&#45;&gt;/resources/Security/IAM/Policies/ECS_Exec_Policy -->
<g id="edge8" class="edge">
<title>/resources/Containers/ECS/Services/default_service&#45;&gt;/resources/Security/IAM/Policies/ECS_Exec_Policy</title>
<path fill="none" stroke="black" d="M886.54,-504.5C926.52,-494.13 978.22,-480.73 1019.87,-469.93"/>
<polygon fill="black" stroke="black" points="1020.88,-473.29 1029.68,-467.39 1019.12,-466.51 1020.88,-473.29"/>
</g>
<!-- /resources/Security/KMS/KMS_Infrastructure -->
<g id="node9" class="node">
<title>/resources/Security/KMS/KMS_Infrastructure</title>
<ellipse fill="none" stroke="black" cx="1612.9" cy="-450" rx="221.76" ry="18"/>
<text text-anchor="middle" x="1612.9" y="-446.3" font-family="Times,serif" font-size="14.00">/resources/Security/KMS/KMS_Infrastructure</text>
</g>
<!-- /resources/Containers/ECS/Services/default_service&#45;&gt;/resources/Security/KMS/KMS_Infrastructure -->
<g id="edge9" class="edge">
<title>/resources/Containers/ECS/Services/default_service&#45;&gt;/resources/Security/KMS/KMS_Infrastructure</title>
<path fill="none" stroke="black" d="M974.28,-507.59C1113.63,-495.24 1319.35,-477.01 1459.38,-464.6"/>
<polygon fill="black" stroke="black" points="1459.69,-468.09 1469.34,-463.72 1459.07,-461.12 1459.69,-468.09"/>
</g>
<!-- /resources/Network/SecurityGroups/ECS/default_service&#45;&gt;/resources/Network/VPC -->
<g id="edge13" class="edge">
<title>/resources/Network/SecurityGroups/ECS/default_service&#45;&gt;/resources/Network/VPC</title>
<path fill="none" stroke="black" d="M793.29,-143.9C792.88,-124.63 789.57,-93.22 773.9,-72 763.77,-58.29 748.97,-47.65 734.06,-39.64"/>
<polygon fill="black" stroke="black" points="735.3,-36.34 724.8,-34.98 732.16,-42.6 735.3,-36.34"/>
</g>
<!-- /resources/Network/SecurityGroups/ECS/default_service&#45;&gt;/resources/Network/SecurityGroups/ALB -->
<g id="edge14" class="edge">
<title>/resources/Network/SecurityGroups/ECS/default_service&#45;&gt;/resources/Network/SecurityGroups/ALB</title>
<path fill="none" stroke="black" d="M738.57,-144.32C705.35,-134.12 662.7,-121.03 627.98,-110.37"/>
<polygon fill="black" stroke="black" points="629,-107.02 618.41,-107.43 626.94,-113.71 629,-107.02"/>
</g>
<!-- /resources/Database/RDS/Postgresql_Main -->
<g id="node10" class="node">
<title>/resources/Database/RDS/Postgresql_Main</title>
<ellipse fill="none" stroke="black" cx="1247.9" cy="-306" rx="208.76" ry="18"/>
<text text-anchor="middle" x="1247.9" y="-302.3" font-family="Times,serif" font-size="14.00">/resources/Database/RDS/Postgresql_Main</text>
</g>
<!-- /resources/Security/SecretsManager/SecretDBPostgreSQL&#45;&gt;/resources/Database/RDS/Postgresql_Main -->
<g id="edge18" class="edge">
<title>/resources/Security/SecretsManager/SecretDBPostgreSQL&#45;&gt;/resources/Database/RDS/Postgresql_Main</title>
<path fill="none" stroke="black" d="M1247.9,-359.7C1247.9,-351.98 1247.9,-342.71 1247.9,-334.11"/>
<polygon fill="black" stroke="black" points="1251.4,-334.1 1247.9,-324.1 1244.4,-334.1 1251.4,-334.1"/>
</g>
<!-- /resources/Security/IAM/Policies/ECS_Exec_Policy&#45;&gt;/resources/Security/SecretsManager/SecretDBPostgreSQL -->
<g id="edge17" class="edge">
<title>/resources/Security/IAM/Policies/ECS_Exec_Policy&#45;&gt;/resources/Security/SecretsManager/SecretDBPostgreSQL</title>
<path fill="none" stroke="black" d="M1130.42,-432.05C1151.66,-422.46 1178.43,-410.37 1201.04,-400.16"/>
<polygon fill="black" stroke="black" points="1202.78,-403.22 1210.45,-395.91 1199.9,-396.84 1202.78,-403.22"/>
</g>
<!-- /resources/Database/RDS/Postgresql_Main&#45;&gt;/resources/Network/VPC -->
<g id="edge10" class="edge">
<title>/resources/Database/RDS/Postgresql_Main&#45;&gt;/resources/Network/VPC</title>
<path fill="none" stroke="black" d="M1303.02,-288.58C1320.47,-280.49 1337.82,-268.75 1347.9,-252 1356.15,-238.29 1356.64,-229.4 1347.9,-216 1261.14,-82.99 1173.32,-116.54 1020.9,-72 946.43,-50.24 860.08,-36.95 792.77,-29.12"/>
<polygon fill="black" stroke="black" points="792.89,-25.61 782.56,-27.95 792.1,-32.56 792.89,-25.61"/>
</g>
<!-- /resources/Network/SecurityGroups/RDS&#45;Postgres -->
<g id="node11" class="node">
<title>/resources/Network/SecurityGroups/RDS&#45;Postgres</title>
<ellipse fill="none" stroke="black" cx="1094.9" cy="-234" rx="244.26" ry="18"/>
<text text-anchor="middle" x="1094.9" y="-230.3" font-family="Times,serif" font-size="14.00">/resources/Network/SecurityGroups/RDS&#45;Postgres</text>
</g>
<!-- /resources/Database/RDS/Postgresql_Main&#45;&gt;/resources/Network/SecurityGroups/RDS&#45;Postgres -->
<g id="edge11" class="edge">
<title>/resources/Database/RDS/Postgresql_Main&#45;&gt;/resources/Network/SecurityGroups/RDS&#45;Postgres</title>
<path fill="none" stroke="black" d="M1211.25,-288.23C1190.21,-278.61 1163.59,-266.43 1141.12,-256.15"/>
<polygon fill="black" stroke="black" points="1142.32,-252.85 1131.78,-251.87 1139.41,-259.22 1142.32,-252.85"/>
</g>
<!-- /resources/Network/SecurityGroups/RDS&#45;Postgres&#45;&gt;/resources/Network/VPC -->
<g id="edge15" class="edge">
<title>/resources/Network/SecurityGroups/RDS&#45;Postgres&#45;&gt;/resources/Network/VPC</title>
<path fill="none" stroke="black" d="M1096.03,-215.99C1096.39,-196.21 1093.86,-163.75 1075.9,-144 1006.84,-68.08 892.22,-37.92 803.84,-26.12"/>
<polygon fill="black" stroke="black" points="804.1,-22.63 793.74,-24.84 803.22,-29.57 804.1,-22.63"/>
</g>
<!-- /resources/Network/SecurityGroups/RDS&#45;Postgres&#45;&gt;/resources/Network/SecurityGroups/ECS/default_service -->
<g id="edge16" class="edge">
<title>/resources/Network/SecurityGroups/RDS&#45;Postgres&#45;&gt;/resources/Network/SecurityGroups/ECS/default_service</title>
<path fill="none" stroke="black" d="M1024.47,-216.68C979.32,-206.21 920.57,-192.59 873.54,-181.69"/>
<polygon fill="black" stroke="black" points="874.23,-178.26 863.69,-179.41 872.65,-185.08 874.23,-178.26"/>
</g>
</g>
</svg>
