<?xml version="1.0" encoding="UTF-8" standalone="no"?>
<!DOCTYPE svg PUBLIC "-//W3C//DTD SVG 1.1//EN"
 "http://www.w3.org/Graphics/SVG/1.1/DTD/svg11.dtd">
<!-- Generated by graphviz version 2.43.0 (0)
 -->
<!-- Title: %3 Pages: 1 -->
<svg width="694pt" height="332pt"
 viewBox="0.00 0.00 694.26 332.00" xmlns="http://www.w3.org/2000/svg" xmlns:xlink="http://www.w3.org/1999/xlink">
<g id="graph0" class="graph" transform="scale(1 1) rotate(0) translate(4 328)">
<title>%3</title>
<polygon fill="white" stroke="transparent" points="-4,4 -4,-328 690.26,-328 690.26,4 -4,4"/>
<!-- /resources/Database/RDS/Postgresql_Main -->
<g id="node1" class="node">
<title>/resources/Database/RDS/Postgresql_Main</title>
<ellipse fill="none" stroke="black" cx="208.63" cy="-306" rx="208.76" ry="18"/>
<text text-anchor="middle" x="208.63" y="-302.3" font-family="Times,serif" font-size="14.00">/resources/Database/RDS/Postgresql_Main</text>
</g>
<!-- /resources/Network/VPC -->
<g id="node2" class="node">
<title>/resources/Network/VPC</title>
<ellipse fill="none" stroke="black" cx="138.63" cy="-18" rx="124.28" ry="18"/>
<text text-anchor="middle" x="138.63" y="-14.3" font-family="Times,serif" font-size="14.00">/resources/Network/VPC</text>
</g>
<!-- /resources/Database/RDS/Postgresql_Main&#45;&gt;/resources/Network/VPC -->
<g id="edge1" class="edge">
<title>/resources/Database/RDS/Postgresql_Main&#45;&gt;/resources/Network/VPC</title>
<path fill="none" stroke="black" d="M140.1,-288.97C121.19,-281.06 102.81,-269.34 91.63,-252 49.26,-186.3 95.34,-90.24 122.16,-44.73"/>
<polygon fill="black" stroke="black" points="125.22,-46.44 127.4,-36.07 119.23,-42.82 125.22,-46.44"/>
</g>
<!-- /resources/Network/SecurityGroups/RDS&#45;Postgres -->
<g id="node3" class="node">
<title>/resources/Network/SecurityGroups/RDS&#45;Postgres</title>
<ellipse fill="none" stroke="black" cx="344.63" cy="-234" rx="244.26" ry="18"/>
<text text-anchor="middle" x="344.63" y="-230.3" font-family="Times,serif" font-size="14.00">/resources/Network/SecurityGroups/RDS&#45;Postgres</text>
</g>
<!-- /resources/Database/RDS/Postgresql_Main&#45;&gt;/resources/Network/SecurityGroups/RDS&#45;Postgres -->
<g id="edge2" class="edge">
<title>/resources/Database/RDS/Postgresql_Main&#45;&gt;/resources/Network/SecurityGroups/RDS&#45;Postgres</title>
<path fill="none" stroke="black" d="M241.55,-288.05C259.88,-278.62 282.88,-266.78 302.5,-256.68"/>
<polygon fill="black" stroke="black" points="304.25,-259.72 311.54,-252.03 301.05,-253.5 304.25,-259.72"/>
</g>
<!-- /resources/Network/SecurityGroups/RDS&#45;Postgres&#45;&gt;/resources/Network/VPC -->
<g id="edge6" class="edge">
<title>/resources/Network/SecurityGroups/RDS&#45;Postgres&#45;&gt;/resources/Network/VPC</title>
<path fill="none" stroke="black" d="M231.45,-217.98C186.87,-209.54 143.09,-197.17 129.63,-180 99.46,-141.49 114.67,-80.53 127.37,-45.72"/>
<polygon fill="black" stroke="black" points="130.7,-46.81 131.01,-36.22 124.16,-44.31 130.7,-46.81"/>
</g>
<!-- /resources/Network/SecurityGroups/ECS/default_service -->
<g id="node5" class="node">
<title>/resources/Network/SecurityGroups/ECS/default_service</title>
<ellipse fill="none" stroke="black" cx="412.63" cy="-162" rx="273.75" ry="18"/>
<text text-anchor="middle" x="412.63" y="-158.3" font-family="Times,serif" font-size="14.00">/resources/Network/SecurityGroups/ECS/default_service</text>
</g>
<!-- /resources/Network/SecurityGroups/RDS&#45;Postgres&#45;&gt;/resources/Network/SecurityGroups/ECS/default_service -->
<g id="edge7" class="edge">
<title>/resources/Network/SecurityGroups/RDS&#45;Postgres&#45;&gt;/resources/Network/SecurityGroups/ECS/default_service</title>
<path fill="none" stroke="black" d="M361.44,-215.7C369.76,-207.14 379.94,-196.66 389.02,-187.3"/>
<polygon fill="black" stroke="black" points="391.56,-189.72 396.02,-180.1 386.54,-184.84 391.56,-189.72"/>
</g>
<!-- /resources/Network/SecurityGroups/ALB -->
<g id="node4" class="node">
<title>/resources/Network/SecurityGroups/ALB</title>
<ellipse fill="none" stroke="black" cx="403.63" cy="-90" rx="199.56" ry="18"/>
<text text-anchor="middle" x="403.63" y="-86.3" font-family="Times,serif" font-size="14.00">/resources/Network/SecurityGroups/ALB</text>
</g>
<!-- /resources/Network/SecurityGroups/ALB&#45;&gt;/resources/Network/VPC -->
<g id="edge3" class="edge">
<title>/resources/Network/SecurityGroups/ALB&#45;&gt;/resources/Network/VPC</title>
<path fill="none" stroke="black" d="M342.5,-72.85C301.61,-62.05 247.78,-47.83 205.71,-36.72"/>
<polygon fill="black" stroke="black" points="206.39,-33.28 195.83,-34.11 204.6,-40.05 206.39,-33.28"/>
</g>
<!-- /resources/Network/SecurityGroups/ECS/default_service&#45;&gt;/resources/Network/VPC -->
<g id="edge4" class="edge">
<title>/resources/Network/SecurityGroups/ECS/default_service&#45;&gt;/resources/Network/VPC</title>
<path fill="none" stroke="black" d="M281.34,-146.18C250.89,-138.28 220,-126.26 194.63,-108 172.98,-92.42 157.81,-65.64 148.76,-45.51"/>
<polygon fill="black" stroke="black" points="151.96,-44.07 144.82,-36.25 145.52,-46.82 151.96,-44.07"/>
</g>
<!-- /resources/Network/SecurityGroups/ECS/default_service&#45;&gt;/resources/Network/SecurityGroups/ALB -->
<g id="edge5" class="edge">
<title>/resources/Network/SecurityGroups/ECS/default_service&#45;&gt;/resources/Network/SecurityGroups/ALB</title>
<path fill="none" stroke="black" d="M410.41,-143.7C409.41,-135.98 408.22,-126.71 407.12,-118.11"/>
<polygon fill="black" stroke="black" points="410.58,-117.58 405.83,-108.1 403.63,-118.47 410.58,-117.58"/>
</g>
</g>
</svg>
