<?xml version="1.0" encoding="UTF-8" standalone="no"?>
<!DOCTYPE svg PUBLIC "-//W3C//DTD SVG 1.1//EN"
 "http://www.w3.org/Graphics/SVG/1.1/DTD/svg11.dtd">
<!-- Generated by graphviz version 2.43.0 (0)
 -->
<!-- Title: %3 Pages: 1 -->
<svg width="822pt" height="260pt"
 viewBox="0.00 0.00 821.76 260.00" xmlns="http://www.w3.org/2000/svg" xmlns:xlink="http://www.w3.org/1999/xlink">
<g id="graph0" class="graph" transform="scale(1 1) rotate(0) translate(4 256)">
<title>%3</title>
<polygon fill="white" stroke="transparent" points="-4,4 -4,-256 817.76,-256 817.76,4 -4,4"/>
<!-- /resources/Compute/EC2/ALB_Main -->
<g id="node1" class="node">
<title>/resources/Compute/EC2/ALB_Main</title>
<ellipse fill="none" stroke="black" cx="176.13" cy="-162" rx="176.27" ry="18"/>
<text text-anchor="middle" x="176.13" y="-158.3" font-family="Times,serif" font-size="14.00">/resources/Compute/EC2/ALB_Main</text>
</g>
<!-- /resources/Network/VPC -->
<g id="node2" class="node">
<title>/resources/Network/VPC</title>
<ellipse fill="none" stroke="black" cx="176.13" cy="-18" rx="124.28" ry="18"/>
<text text-anchor="middle" x="176.13" y="-14.3" font-family="Times,serif" font-size="14.00">/resources/Network/VPC</text>
</g>
<!-- /resources/Compute/EC2/ALB_Main&#45;&gt;/resources/Network/VPC -->
<g id="edge1" class="edge">
<title>/resources/Compute/EC2/ALB_Main&#45;&gt;/resources/Network/VPC</title>
<path fill="none" stroke="black" d="M124.95,-144.57C107.95,-136.4 90.89,-124.61 81.13,-108 73.03,-94.2 73.03,-85.8 81.13,-72 89.45,-57.84 103.08,-47.18 117.45,-39.29"/>
<polygon fill="black" stroke="black" points="119.12,-42.36 126.45,-34.72 115.95,-36.12 119.12,-42.36"/>
</g>
<!-- /resources/Network/SecurityGroups/ALB -->
<g id="node3" class="node">
<title>/resources/Network/SecurityGroups/ALB</title>
<ellipse fill="none" stroke="black" cx="290.13" cy="-90" rx="199.56" ry="18"/>
<text text-anchor="middle" x="290.13" y="-86.3" font-family="Times,serif" font-size="14.00">/resources/Network/SecurityGroups/ALB</text>
</g>
<!-- /resources/Compute/EC2/ALB_Main&#45;&gt;/resources/Network/SecurityGroups/ALB -->
<g id="edge2" class="edge">
<title>/resources/Compute/EC2/ALB_Main&#45;&gt;/resources/Network/SecurityGroups/ALB</title>
<path fill="none" stroke="black" d="M203.73,-144.05C218.74,-134.84 237.5,-123.32 253.7,-113.37"/>
<polygon fill="black" stroke="black" points="255.71,-116.25 262.4,-108.03 252.04,-110.28 255.71,-116.25"/>
</g>
<!-- /resources/Network/SecurityGroups/ALB&#45;&gt;/resources/Network/VPC -->
<g id="edge3" class="edge">
<title>/resources/Network/SecurityGroups/ALB&#45;&gt;/resources/Network/VPC</title>
<path fill="none" stroke="black" d="M262.54,-72.05C247.42,-62.77 228.49,-51.15 212.21,-41.15"/>
<polygon fill="black" stroke="black" points="213.83,-38.04 203.48,-35.79 210.17,-44 213.83,-38.04"/>
</g>
<!-- /resources/Security/KMS/KMS_Infrastructure -->
<g id="node4" class="node">
<title>/resources/Security/KMS/KMS_Infrastructure</title>
<ellipse fill="none" stroke="black" cx="592.13" cy="-162" rx="221.76" ry="18"/>
<text text-anchor="middle" x="592.13" y="-158.3" font-family="Times,serif" font-size="14.00">/resources/Security/KMS/KMS_Infrastructure</text>
</g>
<!-- /resources/Security/WAF/ALB -->
<g id="node5" class="node">
<title>/resources/Security/WAF/ALB</title>
<ellipse fill="none" stroke="black" cx="384.13" cy="-234" rx="147.57" ry="18"/>
<text text-anchor="middle" x="384.13" y="-230.3" font-family="Times,serif" font-size="14.00">/resources/Security/WAF/ALB</text>
</g>
<!-- /resources/Security/WAF/ALB&#45;&gt;/resources/Compute/EC2/ALB_Main -->
<g id="edge4" class="edge">
<title>/resources/Security/WAF/ALB&#45;&gt;/resources/Compute/EC2/ALB_Main</title>
<path fill="none" stroke="black" d="M336.41,-216.94C306.09,-206.73 266.63,-193.45 234.45,-182.62"/>
<polygon fill="black" stroke="black" points="235.31,-179.22 224.71,-179.35 233.07,-185.86 235.31,-179.22"/>
</g>
<!-- /resources/Security/WAF/ALB&#45;&gt;/resources/Security/KMS/KMS_Infrastructure -->
<g id="edge5" class="edge">
<title>/resources/Security/WAF/ALB&#45;&gt;/resources/Security/KMS/KMS_Infrastructure</title>
<path fill="none" stroke="black" d="M431.85,-216.94C461.96,-206.81 501.08,-193.64 533.13,-182.86"/>
<polygon fill="black" stroke="black" points="534.47,-186.1 542.83,-179.59 532.24,-179.47 534.47,-186.1"/>
</g>
</g>
</svg>
